<?xml version="1.0" ?><svg enable-background="new 0 0 512 512" id="Layer_1" version="1.1" viewBox="0 0 512 512" xml:space="preserve" xmlns="http://www.w3.org/2000/svg" xmlns:xlink="http://www.w3.org/1999/xlink"><g><defs><circle cx="-267.8" cy="786.1" id="XMLID_1_" r="183.7"/></defs><use fill="#E1C65B" overflow="visible" xlink:href="#XMLID_1_"/><clipPath id="XMLID_3_"><use overflow="visible" xlink:href="#XMLID_1_"/></clipPath><g clip-path="url(#XMLID_3_)"><path d="M57.5,621.8    c-101.6-59.8-216.1-89.7-330.5-89.7c0-21,0-42.1,0-63.1c125.5,0,251,32.8,362.5,98.4C78.8,585.5,68.1,603.6,57.5,621.8z" fill="#ECD160" stroke="#1B1613" stroke-miterlimit="10" stroke-width="4.7334"/></g></g><line fill="#FFFFFF" x1="216.7" x2="184.7" y1="188" y2="118.1"/><line fill="#FFFFFF" x1="216.7" x2="184.7" y1="324" y2="393.9"/><line fill="#FFFFFF" x1="297" x2="329" y1="324" y2="393.9"/><line fill="#FFFFFF" x1="336.2" x2="389.7" y1="256" y2="256"/><g><path d="M172.9,248l34.9-60.4l-25.8-56.4c-28.7,26.9-47.8,69.1-49.7,116.9H172.9z" fill="#AE6D59"/><linearGradient gradientUnits="userSpaceOnUse" id="SVGID_1_" x1="169.7388" x2="169.7388" y1="240.9998" y2="143.2771"><stop offset="0" style="stop-color:#FFFFFF;stop-opacity:0"/><stop offset="1" style="stop-color:#FFFFFF;stop-opacity:0.8"/></linearGradient><path d="M139.6,241c3-38,17.3-72.8,40.2-97.7l20.1,43.9L168.8,241H139.6z" fill="url(#SVGID_1_)"/><path d="M181.9,380.9l25.8-56.4L172.9,264h-40.7C134.1,311.8,153.2,353.9,181.9,380.9z" fill="#AE6D59"/><linearGradient gradientUnits="userSpaceOnUse" id="SVGID_2_" x1="169.7388" x2="169.7388" y1="368.7224" y2="270.9998"><stop offset="0" style="stop-color:#FFFFFF;stop-opacity:0"/><stop offset="1" style="stop-color:#FFFFFF;stop-opacity:0.8"/></linearGradient><path d="M179.8,368.7c-22.8-25-37.2-59.8-40.2-97.7h29.2l31.1,53.8L179.8,368.7z" fill="url(#SVGID_2_)"/><path d="M194.7,120.6l27.2,59.4h69.9l26.8-58.5c-18.4-13.6-39.8-21.4-62.6-21.4   C233.7,100.2,212.8,107.6,194.7,120.6z" fill="#AE6D59"/><linearGradient gradientUnits="userSpaceOnUse" id="SVGID_3_" x1="256.6543" x2="256.6543" y1="173.0017" y2="107.199"><stop offset="0" style="stop-color:#FFFFFF;stop-opacity:0"/><stop offset="1" style="stop-color:#FFFFFF;stop-opacity:0.8"/></linearGradient><path d="M226.4,173l-22.9-49.9c16.2-10.4,34.3-15.9,52.5-15.9c18.7,0,37.2,5.8,53.8,16.7L287.3,173H226.4z" fill="url(#SVGID_3_)"/><polygon fill="#AE6D59" points="221.4,196 186.7,256 221.4,316 290.6,316 325.3,256 290.6,196  "/><linearGradient gradientUnits="userSpaceOnUse" id="SVGID_4_" x1="256" x2="256" y1="308.9978" y2="203.0017"><stop offset="0" style="stop-color:#FFFFFF;stop-opacity:0"/><stop offset="1" style="stop-color:#FFFFFF;stop-opacity:0.8"/></linearGradient><polygon fill="url(#SVGID_4_)" points="225.4,309 194.8,256 225.4,203 286.6,203 317.2,256 286.6,309  "/><path d="M331.3,132.3l-26.1,56.9l33.9,58.8h40.7C377.9,200.9,359.3,159.3,331.3,132.3z" fill="#AE6D59"/><linearGradient gradientUnits="userSpaceOnUse" id="SVGID_5_" x1="342.7354" x2="342.7354" y1="240.9998" y2="144.5408"><stop offset="0" style="stop-color:#FFFFFF;stop-opacity:0"/><stop offset="1" style="stop-color:#FFFFFF;stop-opacity:0.8"/></linearGradient><path d="M343.2,241l-30.1-52.1l20.3-44.3c22.2,24.9,36.1,59.2,39,96.5H343.2z" fill="url(#SVGID_5_)"/><path d="M318.6,390.5L291.8,332h-69.9l-27.2,59.4c18.1,13,39,20.4,61.3,20.4C278.8,411.8,300.2,404,318.6,390.5z" fill="#AE6D59"/><linearGradient gradientUnits="userSpaceOnUse" id="SVGID_6_" x1="256.6543" x2="256.6543" y1="404.8005" y2="338.9978"><stop offset="0" style="stop-color:#FFFFFF;stop-opacity:0"/><stop offset="1" style="stop-color:#FFFFFF;stop-opacity:0.8"/></linearGradient><path d="M256,404.8c-18.2,0-36.3-5.5-52.5-15.9l22.9-49.9h61l22.5,49.1C293.2,399,274.7,404.8,256,404.8z" fill="url(#SVGID_6_)"/><path d="M339.1,264l-33.9,58.8l26.1,56.9c28-27,46.7-68.6,48.6-115.7H339.1z" fill="#AE6D59"/><linearGradient gradientUnits="userSpaceOnUse" id="SVGID_7_" x1="342.7354" x2="342.7354" y1="367.4587" y2="270.9998"><stop offset="0" style="stop-color:#FFFFFF;stop-opacity:0"/><stop offset="1" style="stop-color:#FFFFFF;stop-opacity:0.8"/></linearGradient><path d="M313.1,323.1l30.1-52.1h29.2c-3,37.2-16.9,71.6-39,96.5L313.1,323.1z" fill="url(#SVGID_7_)"/></g></svg>