<svg xmlns="http://www.w3.org/2000/svg" width="1920" height="1080"><path d="M1046,564L1139,508L1033,381Z" fill="#d989ff" stroke="#d989ff" stroke-width="1.51"/><path d="M1033,381L946,410L1046,564Z" fill="#d98dff" stroke="#d98dff" stroke-width="1.51"/><path d="M946,410L920,522L1046,564Z" fill="#d88bff" stroke="#d88bff" stroke-width="1.51"/><path d="M1257,407L1082,275L1033,381Z" fill="#dd91ff" stroke="#dd91ff" stroke-width="1.51"/><path d="M1033,381L872,269L946,410Z" fill="#dc96ff" stroke="#dc96ff" stroke-width="1.51"/><path d="M1139,508L1257,407L1033,381Z" fill="#db8bff" stroke="#db8bff" stroke-width="1.51"/><path d="M1139,508L1308,512L1257,407Z" fill="#da84ff" stroke="#da84ff" stroke-width="1.51"/><path d="M1213,697L1308,512L1139,508Z" fill="#d97fff" stroke="#d97fff" stroke-width="1.51"/><path d="M946,410L707,534L920,522Z" fill="#da91ff" stroke="#da91ff" stroke-width="1.51"/><path d="M1082,275L872,269L1033,381Z" fill="#dd98ff" stroke="#dd98ff" stroke-width="1.51"/><path d="M1046,564L1213,697L1139,508Z" fill="#d881ff" stroke="#d881ff" stroke-width="1.51"/><path d="M865,726L1098,744L1046,564Z" fill="#d880ff" stroke="#d880ff" stroke-width="1.51"/><path d="M1098,744L1213,697L1046,564Z" fill="#d97dff" stroke="#d97dff" stroke-width="1.51"/><path d="M1257,407L1235,230L1082,275Z" fill="#df92ff" stroke="#df92ff" stroke-width="1.51"/><path d="M1308,512L1339,408L1257,407Z" fill="#dc85ff" stroke="#dc85ff" stroke-width="1.51"/><path d="M1339,408L1235,230L1257,407Z" fill="#de8dff" stroke="#de8dff" stroke-width="1.51"/><path d="M1082,275L910,120L872,269Z" fill="#dfa0ff" stroke="#dfa0ff" stroke-width="1.51"/><path d="M920,522L865,726L1046,564Z" fill="#d786ff" stroke="#d786ff" stroke-width="1.51"/><path d="M707,534L865,726L920,522Z" fill="#d98cff" stroke="#d98cff" stroke-width="1.51"/><path d="M1219,800L1298,713L1213,697Z" fill="#da76ff" stroke="#da76ff" stroke-width="1.51"/><path d="M865,726L1026,807L1098,744Z" fill="#d97dff" stroke="#d97dff" stroke-width="1.51"/><path d="M1213,697L1298,713L1308,512Z" fill="#da7aff" stroke="#da7aff" stroke-width="1.51"/><path d="M1472,601L1444,367L1339,408Z" fill="#dc80ff" stroke="#dc80ff" stroke-width="1.51"/><path d="M1219,800L1213,697L1098,744Z" fill="#da78ff" stroke="#da78ff" stroke-width="1.51"/><path d="M734,278L707,534L946,410Z" fill="#de9aff" stroke="#de9aff" stroke-width="1.51"/><path d="M1026,807L1219,800L1098,744Z" fill="#da78ff" stroke="#da78ff" stroke-width="1.51"/><path d="M872,269L734,278L946,410Z" fill="#df9eff" stroke="#df9eff" stroke-width="1.51"/><path d="M715,112L734,278L872,269Z" fill="#e3a9ff" stroke="#e3a9ff" stroke-width="1.51"/><path d="M1095,62L910,120L1082,275Z" fill="#e2a2ff" stroke="#e2a2ff" stroke-width="1.51"/><path d="M707,534L795,754L865,726Z" fill="#db8bff" stroke="#db8bff" stroke-width="1.51"/><path d="M865,726L886,828L1026,807Z" fill="#d97eff" stroke="#d97eff" stroke-width="1.51"/><path d="M795,754L886,828L865,726Z" fill="#db84ff" stroke="#db84ff" stroke-width="1.51"/><path d="M1026,807L1127,998L1219,800Z" fill="#db73ff" stroke="#db73ff" stroke-width="1.51"/><path d="M1235,230L1095,62L1082,275Z" fill="#e29cff" stroke="#e29cff" stroke-width="1.51"/><path d="M1371,167L1244,121L1235,230Z" fill="#e499ff" stroke="#e499ff" stroke-width="1.51"/><path d="M1339,408L1371,167L1235,230Z" fill="#e191ff" stroke="#e191ff" stroke-width="1.51"/><path d="M1472,601L1339,408L1308,512Z" fill="#da7eff" stroke="#da7eff" stroke-width="1.51"/><path d="M1244,121L1095,62L1235,230Z" fill="#e49eff" stroke="#e49eff" stroke-width="1.51"/><path d="M734,278L663,341L707,534Z" fill="#e0a1ff" stroke="#e0a1ff" stroke-width="1.51"/><path d="M548,216L663,341L734,278Z" fill="#e4abff" stroke="#e4abff" stroke-width="1.51"/><path d="M1429,698L1472,601L1308,512Z" fill="#da77ff" stroke="#da77ff" stroke-width="1.51"/><path d="M1219,800L1337,783L1298,713Z" fill="#db73ff" stroke="#db73ff" stroke-width="1.51"/><path d="M1429,698L1308,512L1298,713Z" fill="#da77ff" stroke="#da77ff" stroke-width="1.51"/><path d="M1337,783L1429,698L1298,713Z" fill="#db72ff" stroke="#db72ff" stroke-width="1.51"/><path d="M1444,367L1371,167L1339,408Z" fill="#e08cff" stroke="#e08cff" stroke-width="1.51"/><path d="M1201,-115L1043,-65L1095,62Z" fill="#e8adff" stroke="#e8adff" stroke-width="1.51"/><path d="M795,754L680,885L886,828Z" fill="#dd84ff" stroke="#dd84ff" stroke-width="1.51"/><path d="M707,534L643,637L795,754Z" fill="#dc90ff" stroke="#dc90ff" stroke-width="1.51"/><path d="M540,598L643,637L707,534Z" fill="#dd97ff" stroke="#dd97ff" stroke-width="1.51"/><path d="M910,120L715,112L872,269Z" fill="#e3a9ff" stroke="#e3a9ff" stroke-width="1.51"/><path d="M759,-103L715,112L910,120Z" fill="#e8b4ff" stroke="#e8b4ff" stroke-width="1.51"/><path d="M663,341L561,362L707,534Z" fill="#e1a1ff" stroke="#e1a1ff" stroke-width="1.51"/><path d="M548,216L561,362L663,341Z" fill="#e5acff" stroke="#e5acff" stroke-width="1.51"/><path d="M1371,167L1385,73L1244,121Z" fill="#e59cff" stroke="#e59cff" stroke-width="1.51"/><path d="M1467,146L1385,73L1371,167Z" fill="#e699ff" stroke="#e699ff" stroke-width="1.51"/><path d="M1537,217L1371,167L1444,367Z" fill="#e38fff" stroke="#e38fff" stroke-width="1.51"/><path d="M1537,217L1467,146L1371,167Z" fill="#e594ff" stroke="#e594ff" stroke-width="1.51"/><path d="M561,362L540,598L707,534Z" fill="#df9dff" stroke="#df9dff" stroke-width="1.51"/><path d="M617,820L680,885L795,754Z" fill="#df89ff" stroke="#df89ff" stroke-width="1.51"/><path d="M1060,1040L1127,998L1026,807Z" fill="#db71ff" stroke="#db71ff" stroke-width="1.51"/><path d="M1219,800L1382,1049L1337,783Z" fill="#dc6cff" stroke="#dc6cff" stroke-width="1.51"/><path d="M1337,783L1490,793L1429,698Z" fill="#dc6fff" stroke="#dc6fff" stroke-width="1.51"/><path d="M1060,1040L1026,807L886,828Z" fill="#da77ff" stroke="#da77ff" stroke-width="1.51"/><path d="M1095,62L1043,-65L910,120Z" fill="#e5abff" stroke="#e5abff" stroke-width="1.51"/><path d="M1201,-115L1095,62L1244,121Z" fill="#e7a7ff" stroke="#e7a7ff" stroke-width="1.51"/><path d="M1382,1049L1490,793L1337,783Z" fill="#dd6aff" stroke="#dd6aff" stroke-width="1.51"/><path d="M1429,698L1490,793L1472,601Z" fill="#db70ff" stroke="#db70ff" stroke-width="1.51"/><path d="M1616,335L1537,217L1444,367Z" fill="#e288ff" stroke="#e288ff" stroke-width="1.51"/><path d="M1619,532L1444,367L1472,601Z" fill="#db7aff" stroke="#db7aff" stroke-width="1.51"/><path d="M617,820L795,754L643,637Z" fill="#de8dff" stroke="#de8dff" stroke-width="1.51"/><path d="M540,598L617,820L643,637Z" fill="#df94ff" stroke="#df94ff" stroke-width="1.51"/><path d="M715,112L548,216L734,278Z" fill="#e6afff" stroke="#e6afff" stroke-width="1.51"/><path d="M561,362L446,520L540,598Z" fill="#e0a2ff" stroke="#e0a2ff" stroke-width="1.51"/><path d="M1127,998L1382,1049L1219,800Z" fill="#dc6bff" stroke="#dc6bff" stroke-width="1.51"/><path d="M863,1034L1060,1040L886,828Z" fill="#db75ff" stroke="#db75ff" stroke-width="1.51"/><path d="M1667,746L1619,532L1472,601Z" fill="#db70ff" stroke="#db70ff" stroke-width="1.51"/><path d="M1619,532L1616,335L1444,367Z" fill="#df7fff" stroke="#df7fff" stroke-width="1.51"/><path d="M1043,-65L934,-101L910,120Z" fill="#e6b0ff" stroke="#e6b0ff" stroke-width="1.51"/><path d="M715,112L634,23L548,216Z" fill="#e8b6ff" stroke="#e8b6ff" stroke-width="1.51"/><path d="M680,885L863,1034L886,828Z" fill="#de7fff" stroke="#de7fff" stroke-width="1.51"/><path d="M680,885L673,933L863,1034Z" fill="#df81ff" stroke="#df81ff" stroke-width="1.51"/><path d="M617,820L673,933L680,885Z" fill="#e088ff" stroke="#e088ff" stroke-width="1.51"/><path d="M410,110L489,260L548,216Z" fill="#e9b8ff" stroke="#e9b8ff" stroke-width="1.51"/><path d="M548,216L489,260L561,362Z" fill="#e6b0ff" stroke="#e6b0ff" stroke-width="1.51"/><path d="M1325,-80L1244,121L1385,73Z" fill="#e8a2ff" stroke="#e8a2ff" stroke-width="1.51"/><path d="M1325,-80L1201,-115L1244,121Z" fill="#e9a8ff" stroke="#e9a8ff" stroke-width="1.51"/><path d="M1043,-65L1062,-245L934,-101Z" fill="#eab7ff" stroke="#eab7ff" stroke-width="1.51"/><path d="M540,598L449,650L617,820Z" fill="#e197ff" stroke="#e197ff" stroke-width="1.51"/><path d="M617,820L530,1034L673,933Z" fill="#e289ff" stroke="#e289ff" stroke-width="1.51"/><path d="M394,375L446,520L561,362Z" fill="#e3aaff" stroke="#e3aaff" stroke-width="1.51"/><path d="M759,-103L634,23L715,112Z" fill="#e9bbff" stroke="#e9bbff" stroke-width="1.51"/><path d="M1439,-26L1385,73L1467,146Z" fill="#e89dff" stroke="#e89dff" stroke-width="1.51"/><path d="M1439,-26L1325,-80L1385,73Z" fill="#eaa3ff" stroke="#eaa3ff" stroke-width="1.51"/><path d="M1060,1040L1128,1095L1127,998Z" fill="#dc6bff" stroke="#dc6bff" stroke-width="1.51"/><path d="M863,1034L1054,1087L1060,1040Z" fill="#dc6eff" stroke="#dc6eff" stroke-width="1.51"/><path d="M1054,1087L1128,1095L1060,1040Z" fill="#dc6bff" stroke="#dc6bff" stroke-width="1.51"/><path d="M1707,40L1439,-26L1467,146Z" fill="#e99aff" stroke="#e99aff" stroke-width="1.51"/><path d="M1707,40L1467,146L1537,217Z" fill="#e793ff" stroke="#e793ff" stroke-width="1.51"/><path d="M446,520L449,650L540,598Z" fill="#e19eff" stroke="#e19eff" stroke-width="1.51"/><path d="M1616,335L1648,239L1537,217Z" fill="#e489ff" stroke="#e489ff" stroke-width="1.51"/><path d="M1748,349L1648,239L1616,335Z" fill="#e283ff" stroke="#e283ff" stroke-width="1.51"/><path d="M934,-101L759,-103L910,120Z" fill="#e8b5ff" stroke="#e8b5ff" stroke-width="1.51"/><path d="M672,-181L759,-103L833,-290Z" fill="#eec6ff" stroke="#eec6ff" stroke-width="1.51"/><path d="M1292,1111L1382,1049L1127,998Z" fill="#de65ff" stroke="#de65ff" stroke-width="1.51"/><path d="M1490,793L1667,746L1472,601Z" fill="#dc6dff" stroke="#dc6dff" stroke-width="1.51"/><path d="M489,260L394,375L561,362Z" fill="#e6afff" stroke="#e6afff" stroke-width="1.51"/><path d="M446,520L308,642L449,650Z" fill="#e2a1ff" stroke="#e2a1ff" stroke-width="1.51"/><path d="M304,362L394,375L310,264Z" fill="#e8b6ff" stroke="#e8b6ff" stroke-width="1.51"/><path d="M1201,-115L1062,-245L1043,-65Z" fill="#ebb5ff" stroke="#ebb5ff" stroke-width="1.51"/><path d="M1325,-80L1252,-167L1201,-115Z" fill="#ebafff" stroke="#ebafff" stroke-width="1.51"/><path d="M1340,-173L1252,-167L1325,-80Z" fill="#edafff" stroke="#edafff" stroke-width="1.51"/><path d="M1689,825L1667,746L1490,793Z" fill="#dd66ff" stroke="#dd66ff" stroke-width="1.51"/><path d="M1619,532L1748,349L1616,335Z" fill="#df7cff" stroke="#df7cff" stroke-width="1.51"/><path d="M1128,1095L1292,1111L1127,998Z" fill="#dd67ff" stroke="#dd67ff" stroke-width="1.51"/><path d="M1521,-291L1340,-173L1439,-26Z" fill="#efadff" stroke="#efadff" stroke-width="1.51"/><path d="M1851,479L1748,349L1619,532Z" fill="#de76ff" stroke="#de76ff" stroke-width="1.51"/><path d="M1707,40L1537,217L1648,239Z" fill="#e78fff" stroke="#e78fff" stroke-width="1.51"/><path d="M1439,-26L1340,-173L1325,-80Z" fill="#ecaaff" stroke="#ecaaff" stroke-width="1.51"/><path d="M1667,746L1744,640L1619,532Z" fill="#dc6cff" stroke="#dc6cff" stroke-width="1.51"/><path d="M1315,1254L1467,1055L1382,1049Z" fill="#df5cff" stroke="#df5cff" stroke-width="1.51"/><path d="M1382,1049L1467,1055L1490,793Z" fill="#de63ff" stroke="#de63ff" stroke-width="1.51"/><path d="M1667,746L1689,825L1744,640Z" fill="#dd66ff" stroke="#dd66ff" stroke-width="1.51"/><path d="M1521,-291L1062,-245L1252,-167Z" fill="#efb7ff" stroke="#efb7ff" stroke-width="1.51"/><path d="M1252,-167L1062,-245L1201,-115Z" fill="#ecb5ff" stroke="#ecb5ff" stroke-width="1.51"/><path d="M1609,1055L1689,825L1490,793Z" fill="#de61ff" stroke="#de61ff" stroke-width="1.51"/><path d="M759,-103L633,-124L634,23Z" fill="#ecc1ff" stroke="#ecc1ff" stroke-width="1.51"/><path d="M634,23L410,110L548,216Z" fill="#eabbff" stroke="#eabbff" stroke-width="1.51"/><path d="M672,-181L633,-124L759,-103Z" fill="#eec6ff" stroke="#eec6ff" stroke-width="1.51"/><path d="M863,1034L932,1193L1054,1087Z" fill="#dc6eff" stroke="#dc6eff" stroke-width="1.51"/><path d="M1054,1087L998,1297L1128,1095Z" fill="#dd67ff" stroke="#dd67ff" stroke-width="1.51"/><path d="M1128,1095L1237,1244L1292,1111Z" fill="#de61ff" stroke="#de61ff" stroke-width="1.51"/><path d="M737,1152L932,1193L863,1034Z" fill="#df73ff" stroke="#df73ff" stroke-width="1.51"/><path d="M485,-103L410,110L634,23Z" fill="#edc4ff" stroke="#edc4ff" stroke-width="1.51"/><path d="M530,1034L737,1152L673,933Z" fill="#e381ff" stroke="#e381ff" stroke-width="1.51"/><path d="M673,933L737,1152L863,1034Z" fill="#e07bff" stroke="#e07bff" stroke-width="1.51"/><path d="M633,-124L485,-103L634,23Z" fill="#eec6ff" stroke="#eec6ff" stroke-width="1.51"/><path d="M833,-290L759,-103L934,-101Z" fill="#ecc0ff" stroke="#ecc0ff" stroke-width="1.51"/><path d="M449,650L432,904L617,820Z" fill="#e294ff" stroke="#e294ff" stroke-width="1.51"/><path d="M308,642L432,904L449,650Z" fill="#e49cff" stroke="#e49cff" stroke-width="1.51"/><path d="M394,375L304,362L446,520Z" fill="#e5aeff" stroke="#e5aeff" stroke-width="1.51"/><path d="M310,264L394,375L489,260Z" fill="#e8b5ff" stroke="#e8b5ff" stroke-width="1.51"/><path d="M220,561L308,642L446,520Z" fill="#e3a6ff" stroke="#e3a6ff" stroke-width="1.51"/><path d="M432,904L530,1034L617,820Z" fill="#e48dff" stroke="#e48dff" stroke-width="1.51"/><path d="M410,110L310,264L489,260Z" fill="#eabbff" stroke="#eabbff" stroke-width="1.51"/><path d="M1804,205L1707,40L1648,239Z" fill="#e88dff" stroke="#e88dff" stroke-width="1.51"/><path d="M1062,-245L833,-290L934,-101Z" fill="#ecbfff" stroke="#ecbfff" stroke-width="1.51"/><path d="M998,1297L1237,1244L1128,1095Z" fill="#de61ff" stroke="#de61ff" stroke-width="1.51"/><path d="M1315,1254L1541,1113L1467,1055Z" fill="#df58ff" stroke="#df58ff" stroke-width="1.51"/><path d="M932,1193L998,1297L1054,1087Z" fill="#dd67ff" stroke="#dd67ff" stroke-width="1.51"/><path d="M791,1317L938,1257L932,1193Z" fill="#df69ff" stroke="#df69ff" stroke-width="1.51"/><path d="M1748,349L1804,205L1648,239Z" fill="#e585ff" stroke="#e585ff" stroke-width="1.51"/><path d="M1906,382L1804,205L1748,349Z" fill="#e47eff" stroke="#e47eff" stroke-width="1.51"/><path d="M1744,640L1851,479L1619,532Z" fill="#dc6eff" stroke="#dc6eff" stroke-width="1.51"/><path d="M1898,554L1851,479L1744,640Z" fill="#dc6aff" stroke="#dc6aff" stroke-width="1.51"/><path d="M1689,825L1760,888L1744,640Z" fill="#de62ff" stroke="#de62ff" stroke-width="1.51"/><path d="M1467,1055L1609,1055L1490,793Z" fill="#de60ff" stroke="#de60ff" stroke-width="1.51"/><path d="M1541,1113L1609,1055L1467,1055Z" fill="#df59ff" stroke="#df59ff" stroke-width="1.51"/><path d="M1315,1254L1382,1049L1292,1111Z" fill="#de5dff" stroke="#de5dff" stroke-width="1.51"/><path d="M410,110L228,55L310,264Z" fill="#edc4ff" stroke="#edc4ff" stroke-width="1.51"/><path d="M640,-260L485,-103L633,-124Z" fill="#f0ccff" stroke="#f0ccff" stroke-width="1.51"/><path d="M640,-260L633,-124L672,-181Z" fill="#efcbff" stroke="#efcbff" stroke-width="1.51"/><path d="M1744,938L1760,888L1689,825Z" fill="#df5cff" stroke="#df5cff" stroke-width="1.51"/><path d="M1237,1244L1315,1254L1292,1111Z" fill="#df5bff" stroke="#df5bff" stroke-width="1.51"/><path d="M1461,1355L1315,1254L1237,1244Z" fill="#df54ff" stroke="#df54ff" stroke-width="1.51"/><path d="M938,1257L998,1297L932,1193Z" fill="#dd65ff" stroke="#dd65ff" stroke-width="1.51"/><path d="M791,1317L998,1297L938,1257Z" fill="#df66ff" stroke="#df66ff" stroke-width="1.51"/><path d="M1609,1055L1744,938L1689,825Z" fill="#df5bff" stroke="#df5bff" stroke-width="1.51"/><path d="M325,1033L412,1053L432,904Z" fill="#e791ff" stroke="#e791ff" stroke-width="1.51"/><path d="M304,362L220,561L446,520Z" fill="#e5acff" stroke="#e5acff" stroke-width="1.51"/><path d="M176,526L220,561L304,362Z" fill="#e6b0ff" stroke="#e6b0ff" stroke-width="1.51"/><path d="M1707,40L1662,-108L1439,-26Z" fill="#ec9fff" stroke="#ec9fff" stroke-width="1.51"/><path d="M1340,-173L1521,-291L1252,-167Z" fill="#efb2ff" stroke="#efb2ff" stroke-width="1.51"/><path d="M1871,-126L1662,-108L1707,40Z" fill="#ef9dff" stroke="#ef9dff" stroke-width="1.51"/><path d="M833,-290L640,-260L672,-181Z" fill="#f0cbff" stroke="#f0cbff" stroke-width="1.51"/><path d="M412,1053L483,1092L530,1034Z" fill="#e68aff" stroke="#e68aff" stroke-width="1.51"/><path d="M530,1034L540,1209L737,1152Z" fill="#e47fff" stroke="#e47fff" stroke-width="1.51"/><path d="M737,1152L791,1317L932,1193Z" fill="#e06fff" stroke="#e06fff" stroke-width="1.51"/><path d="M412,1053L530,1034L432,904Z" fill="#e68dff" stroke="#e68dff" stroke-width="1.51"/><path d="M1851,479L1906,382L1748,349Z" fill="#e176ff" stroke="#e176ff" stroke-width="1.51"/><path d="M1909,650L1898,554L1744,640Z" fill="#dd66ff" stroke="#dd66ff" stroke-width="1.51"/><path d="M1909,650L1744,640L1760,888Z" fill="#de62ff" stroke="#de62ff" stroke-width="1.51"/><path d="M1992,188L1805,72L1804,205Z" fill="#e889ff" stroke="#e889ff" stroke-width="1.51"/><path d="M1804,205L1805,72L1707,40Z" fill="#ea8fff" stroke="#ea8fff" stroke-width="1.51"/><path d="M1898,554L1906,382L1851,479Z" fill="#df6fff" stroke="#df6fff" stroke-width="1.51"/><path d="M325,1033L432,904L241,912Z" fill="#e895ff" stroke="#e895ff" stroke-width="1.51"/><path d="M2057,202L1992,188L1906,382Z" fill="#e67dff" stroke="#e67dff" stroke-width="1.51"/><path d="M1910,882L1909,650L1760,888Z" fill="#df5bff" stroke="#df5bff" stroke-width="1.51"/><path d="M241,912L432,904L308,642Z" fill="#e79bff" stroke="#e79bff" stroke-width="1.51"/><path d="M89,439L176,526L304,362Z" fill="#e8b5ff" stroke="#e8b5ff" stroke-width="1.51"/><path d="M173,167L304,362L310,264Z" fill="#ebbeff" stroke="#ebbeff" stroke-width="1.51"/><path d="M540,1209L530,1034L483,1092Z" fill="#e685ff" stroke="#e685ff" stroke-width="1.51"/><path d="M534,1250L791,1317L737,1152Z" fill="#e375ff" stroke="#e375ff" stroke-width="1.51"/><path d="M1709,-226L1521,-291L1662,-108Z" fill="#f1abff" stroke="#f1abff" stroke-width="1.51"/><path d="M1662,-108L1521,-291L1439,-26Z" fill="#efa8ff" stroke="#efa8ff" stroke-width="1.51"/><path d="M1062,-245L1521,-291L833,-290Z" fill="#efbdff" stroke="#efbdff" stroke-width="1.51"/><path d="M534,1250L540,1209L358,1272Z" fill="#e881ff" stroke="#e881ff" stroke-width="1.51"/><path d="M358,1272L540,1209L483,1092Z" fill="#e884ff" stroke="#e884ff" stroke-width="1.51"/><path d="M241,912L308,642L128,722Z" fill="#e8a4ff" stroke="#e8a4ff" stroke-width="1.51"/><path d="M128,722L308,642L220,561Z" fill="#e6a8ff" stroke="#e6a8ff" stroke-width="1.51"/><path d="M291,-55L228,55L410,110Z" fill="#f0ccff" stroke="#f0ccff" stroke-width="1.51"/><path d="M291,-55L410,110L485,-103Z" fill="#f0cbff" stroke="#f0cbff" stroke-width="1.51"/><path d="M640,-260L397,-181L485,-103Z" fill="#f2d2ff" stroke="#f2d2ff" stroke-width="1.51"/><path d="M397,-181L291,-55L485,-103Z" fill="#f2d2ff" stroke="#f2d2ff" stroke-width="1.51"/><path d="M228,55L173,167L310,264Z" fill="#eec7ff" stroke="#eec7ff" stroke-width="1.51"/><path d="M1890,938L1910,882L1760,888Z" fill="#df56ff" stroke="#df56ff" stroke-width="1.51"/><path d="M1609,1055L1760,1106L1744,938Z" fill="#e054ff" stroke="#e054ff" stroke-width="1.51"/><path d="M1541,1113L1697,1147L1609,1055Z" fill="#e053ff" stroke="#e053ff" stroke-width="1.51"/><path d="M1635,1274L1697,1147L1541,1113Z" fill="#e14eff" stroke="#e14eff" stroke-width="1.51"/><path d="M540,1209L534,1250L737,1152Z" fill="#e57cff" stroke="#e57cff" stroke-width="1.51"/><path d="M358,1272L483,1092L412,1053Z" fill="#e889ff" stroke="#e889ff" stroke-width="1.51"/><path d="M1697,1147L1760,1106L1609,1055Z" fill="#e050ff" stroke="#e050ff" stroke-width="1.51"/><path d="M1890,938L1760,888L1744,938Z" fill="#e057ff" stroke="#e057ff" stroke-width="1.51"/><path d="M1871,-126L1709,-226L1662,-108Z" fill="#f1a3ff" stroke="#f1a3ff" stroke-width="1.51"/><path d="M1871,-126L1707,40L1805,72Z" fill="#ed97ff" stroke="#ed97ff" stroke-width="1.51"/><path d="M1760,1106L1890,938L1744,938Z" fill="#e052ff" stroke="#e052ff" stroke-width="1.51"/><path d="M176,526L128,722L220,561Z" fill="#e6acff" stroke="#e6acff" stroke-width="1.51"/><path d="M28,700L128,722L176,526Z" fill="#e8aeff" stroke="#e8aeff" stroke-width="1.51"/><path d="M173,167L89,439L304,362Z" fill="#ebbdff" stroke="#ebbdff" stroke-width="1.51"/><path d="M1315,1254L1461,1355L1541,1113Z" fill="#e052ff" stroke="#e052ff" stroke-width="1.51"/><path d="M1697,1147L1802,1247L1760,1106Z" fill="#e148ff" stroke="#e148ff" stroke-width="1.51"/><path d="M998,1297L1461,1355L1237,1244Z" fill="#df58ff" stroke="#df58ff" stroke-width="1.51"/><path d="M791,1317L1461,1355L998,1297Z" fill="#de5cff" stroke="#de5cff" stroke-width="1.51"/><path d="M1906,382L1992,188L1804,205Z" fill="#e67fff" stroke="#e67fff" stroke-width="1.51"/><path d="M2046,555L1906,382L1898,554Z" fill="#df6bff" stroke="#df6bff" stroke-width="1.51"/><path d="M2046,555L1898,554L1909,650Z" fill="#dd65ff" stroke="#dd65ff" stroke-width="1.51"/><path d="M325,1033L295,1098L412,1053Z" fill="#e990ff" stroke="#e990ff" stroke-width="1.51"/><path d="M151,1063L295,1098L325,1033Z" fill="#eb95ff" stroke="#eb95ff" stroke-width="1.51"/><path d="M151,1063L325,1033L241,912Z" fill="#ea98ff" stroke="#ea98ff" stroke-width="1.51"/><path d="M1461,1355L1635,1274L1541,1113Z" fill="#e04dff" stroke="#e04dff" stroke-width="1.51"/><path d="M1760,1106L1949,1136L1890,938Z" fill="#e14bff" stroke="#e14bff" stroke-width="1.51"/><path d="M2103,652L2046,555L1909,650Z" fill="#de60ff" stroke="#de60ff" stroke-width="1.51"/><path d="M2103,652L1909,650L1910,882Z" fill="#de5cff" stroke="#de5cff" stroke-width="1.51"/><path d="M128,722L108,809L241,912Z" fill="#eaa4ff" stroke="#eaa4ff" stroke-width="1.51"/><path d="M28,700L108,809L128,722Z" fill="#eaabff" stroke="#eaabff" stroke-width="1.51"/><path d="M1992,188L1956,13L1805,72Z" fill="#eb8cff" stroke="#eb8cff" stroke-width="1.51"/><path d="M1956,13L1871,-126L1805,72Z" fill="#ee95ff" stroke="#ee95ff" stroke-width="1.51"/><path d="M228,55L146,19L173,167Z" fill="#f1cfff" stroke="#f1cfff" stroke-width="1.51"/><path d="M-48,241L-10,403L89,439Z" fill="#edc3ff" stroke="#edc3ff" stroke-width="1.51"/><path d="M291,-55L146,19L228,55Z" fill="#f2d2ff" stroke="#f2d2ff" stroke-width="1.51"/><path d="M130,-85L146,19L291,-55Z" fill="#f3d7ff" stroke="#f3d7ff" stroke-width="1.51"/><path d="M1992,188L2109,93L1956,13Z" fill="#ec88ff" stroke="#ec88ff" stroke-width="1.51"/><path d="M2137,359L2057,202L1906,382Z" fill="#e577ff" stroke="#e577ff" stroke-width="1.51"/><path d="M1973,-178L1833,-226L1871,-126Z" fill="#f3a1ff" stroke="#f3a1ff" stroke-width="1.51"/><path d="M1871,-126L1833,-226L1709,-226Z" fill="#f3a4ff" stroke="#f3a4ff" stroke-width="1.51"/><path d="M1709,-226L1833,-226L1521,-291Z" fill="#f3acff" stroke="#f3acff" stroke-width="1.51"/><path d="M2001,-114L1871,-126L1956,13Z" fill="#f098ff" stroke="#f098ff" stroke-width="1.51"/><path d="M255,1347L358,1272L295,1098Z" fill="#ec8aff" stroke="#ec8aff" stroke-width="1.51"/><path d="M-21,571L28,700L176,526Z" fill="#e8b2ff" stroke="#e8b2ff" stroke-width="1.51"/><path d="M-21,571L176,526L89,439Z" fill="#e8b6ff" stroke="#e8b6ff" stroke-width="1.51"/><path d="M295,1098L358,1272L412,1053Z" fill="#ea8cff" stroke="#ea8cff" stroke-width="1.51"/><path d="M534,1250L255,1347L791,1317Z" fill="#e87bff" stroke="#e87bff" stroke-width="1.51"/><path d="M151,1063L241,912L108,809Z" fill="#eb9fff" stroke="#eb9fff" stroke-width="1.51"/><path d="M2046,555L2137,359L1906,382Z" fill="#e16dff" stroke="#e16dff" stroke-width="1.51"/><path d="M2130,902L2103,652L1910,882Z" fill="#e053ff" stroke="#e053ff" stroke-width="1.51"/><path d="M-48,241L89,439L173,167Z" fill="#eec6ff" stroke="#eec6ff" stroke-width="1.51"/><path d="M1890,938L2130,902L1910,882Z" fill="#e050ff" stroke="#e050ff" stroke-width="1.51"/><path d="M1635,1274L1802,1247L1697,1147Z" fill="#e146ff" stroke="#e146ff" stroke-width="1.51"/><path d="M1898,1310L1802,1247L1635,1274Z" fill="#e23eff" stroke="#e23eff" stroke-width="1.51"/><path d="M-80,101L-48,241L173,167Z" fill="#f1d1ff" stroke="#f1d1ff" stroke-width="1.51"/><path d="M183,-216L130,-85L291,-55Z" fill="#f5dcff" stroke="#f5dcff" stroke-width="1.51"/><path d="M-74,867L151,1063L108,809Z" fill="#eda5ff" stroke="#eda5ff" stroke-width="1.51"/><path d="M-70,1068L152,1117L151,1063Z" fill="#ef9dff" stroke="#ef9dff" stroke-width="1.51"/><path d="M-10,403L-21,571L89,439Z" fill="#eabbff" stroke="#eabbff" stroke-width="1.51"/><path d="M2263,602L2137,359L2046,555Z" fill="#df62ff" stroke="#df62ff" stroke-width="1.51"/><path d="M151,1063L152,1117L295,1098Z" fill="#ec96ff" stroke="#ec96ff" stroke-width="1.51"/><path d="M-74,867L108,809L28,700Z" fill="#ecacff" stroke="#ecacff" stroke-width="1.51"/><path d="M397,-181L183,-216L291,-55Z" fill="#f4daff" stroke="#f4daff" stroke-width="1.51"/><path d="M204,-267L183,-216L397,-181Z" fill="#f6e0ff" stroke="#f6e0ff" stroke-width="1.51"/><path d="M204,-267L397,-181L640,-260Z" fill="#f4daff" stroke="#f4daff" stroke-width="1.51"/><path d="M2109,93L1992,188L2057,202Z" fill="#ea82ff" stroke="#ea82ff" stroke-width="1.51"/><path d="M2154,-68L2001,-114L1956,13Z" fill="#f193ff" stroke="#f193ff" stroke-width="1.51"/><path d="M1802,1247L1949,1136L1760,1106Z" fill="#e145ff" stroke="#e145ff" stroke-width="1.51"/><path d="M2328,250L2109,93L2057,202Z" fill="#ea7dff" stroke="#ea7dff" stroke-width="1.51"/><path d="M-10,403L-206,600L-21,571Z" fill="#eabcff" stroke="#eabcff" stroke-width="1.51"/><path d="M-80,101L173,167L146,19Z" fill="#f2d3ff" stroke="#f2d3ff" stroke-width="1.51"/><path d="M-80,101L146,19L17,-139Z" fill="#f5dcff" stroke="#f5dcff" stroke-width="1.51"/><path d="M2001,-114L1973,-178L1871,-126Z" fill="#f29cff" stroke="#f29cff" stroke-width="1.51"/><path d="M2130,-293L1973,-178L2001,-114Z" fill="#f59eff" stroke="#f59eff" stroke-width="1.51"/><path d="M17,-139L146,19L130,-85Z" fill="#f6ddff" stroke="#f6ddff" stroke-width="1.51"/><path d="M833,-290L204,-267L640,-260Z" fill="#f3d5ff" stroke="#f3d5ff" stroke-width="1.51"/><path d="M2103,652L2263,602L2046,555Z" fill="#df5cff" stroke="#df5cff" stroke-width="1.51"/><path d="M2117,1045L2130,902L1890,938Z" fill="#e149ff" stroke="#e149ff" stroke-width="1.51"/><path d="M152,1117L255,1347L295,1098Z" fill="#ed90ff" stroke="#ed90ff" stroke-width="1.51"/><path d="M358,1272L255,1347L534,1250Z" fill="#eb84ff" stroke="#eb84ff" stroke-width="1.51"/><path d="M791,1317L255,1347L1461,1355Z" fill="#e168ff" stroke="#e168ff" stroke-width="1.51"/><path d="M1949,1136L2117,1045L1890,938Z" fill="#e146ff" stroke="#e146ff" stroke-width="1.51"/><path d="M1802,1247L1898,1310L1949,1136Z" fill="#e23cff" stroke="#e23cff" stroke-width="1.51"/><path d="M1461,1355L1898,1310L1635,1274Z" fill="#e142ff" stroke="#e142ff" stroke-width="1.51"/><path d="M-225,666L28,700L-21,571Z" fill="#ebb6ff" stroke="#ebb6ff" stroke-width="1.51"/><path d="M17,-139L130,-85L183,-216Z" fill="#f7e2ff" stroke="#f7e2ff" stroke-width="1.51"/><path d="M-225,666L-74,867L28,700Z" fill="#edb3ff" stroke="#edb3ff" stroke-width="1.51"/><path d="M152,1117L86,1259L255,1347Z" fill="#ee92ff" stroke="#ee92ff" stroke-width="1.51"/><path d="M-206,600L-10,403L-254,378Z" fill="#edc4ff" stroke="#edc4ff" stroke-width="1.51"/><path d="M6,-295L17,-139L183,-216Z" fill="#f9e9ff" stroke="#f9e9ff" stroke-width="1.51"/><path d="M2115,1183L2117,1045L1949,1136Z" fill="#e23bff" stroke="#e23bff" stroke-width="1.51"/><path d="M2246,760L2263,602L2103,652Z" fill="#df56ff" stroke="#df56ff" stroke-width="1.51"/><path d="M2249,-14L2154,-68L2109,93Z" fill="#f08bff" stroke="#f08bff" stroke-width="1.51"/><path d="M2225,813L2103,652L2130,902Z" fill="#e050ff" stroke="#e050ff" stroke-width="1.51"/><path d="M2278,1061L2225,813L2130,902Z" fill="#e144ff" stroke="#e144ff" stroke-width="1.51"/><path d="M2328,250L2057,202L2137,359Z" fill="#e776ff" stroke="#e776ff" stroke-width="1.51"/><path d="M2109,93L2154,-68L1956,13Z" fill="#ef8dff" stroke="#ef8dff" stroke-width="1.51"/><path d="M2225,813L2246,760L2103,652Z" fill="#e051ff" stroke="#e051ff" stroke-width="1.51"/><path d="M2278,1061L2295,419L2263,602Z" fill="#df54ff" stroke="#df54ff" stroke-width="1.51"/><path d="M2263,602L2295,419L2137,359Z" fill="#e165ff" stroke="#e165ff" stroke-width="1.51"/><path d="M-62,1208L86,1259L152,1117Z" fill="#f099ff" stroke="#f099ff" stroke-width="1.51"/><path d="M-80,101L-230,231L-48,241Z" fill="#f3d6ff" stroke="#f3d6ff" stroke-width="1.51"/><path d="M17,-139L-129,73L-80,101Z" fill="#f6dfff" stroke="#f6dfff" stroke-width="1.51"/><path d="M-74,867L-70,1068L151,1063Z" fill="#efa4ff" stroke="#efa4ff" stroke-width="1.51"/><path d="M-254,378L-10,403L-48,241Z" fill="#f0caff" stroke="#f0caff" stroke-width="1.51"/><path d="M-179,1054L-70,1068L-74,867Z" fill="#f1aaff" stroke="#f1aaff" stroke-width="1.51"/><path d="M2117,1045L2278,1061L2130,902Z" fill="#e23eff" stroke="#e23eff" stroke-width="1.51"/><path d="M2225,813L2278,1061L2246,760Z" fill="#e147ff" stroke="#e147ff" stroke-width="1.51"/><path d="M1898,1310L2115,1183L1949,1136Z" fill="#e238ff" stroke="#e238ff" stroke-width="1.51"/><path d="M2154,-68L2130,-293L2001,-114Z" fill="#f499ff" stroke="#f499ff" stroke-width="1.51"/><path d="M2329,46L2249,-14L2109,93Z" fill="#ef87ff" stroke="#ef87ff" stroke-width="1.51"/><path d="M-206,600L-225,666L-21,571Z" fill="#ecbcff" stroke="#ecbcff" stroke-width="1.51"/><path d="M-254,378L-225,666L-206,600Z" fill="#edc2ff" stroke="#edc2ff" stroke-width="1.51"/><path d="M2295,419L2328,250L2137,359Z" fill="#e56fff" stroke="#e56fff" stroke-width="1.51"/><path d="M2323,1307L2328,250L2295,419Z" fill="#df56ff" stroke="#df56ff" stroke-width="1.51"/><path d="M17,-139L-196,-169L-129,73Z" fill="#f9e7ff" stroke="#f9e7ff" stroke-width="1.51"/><path d="M204,-267L6,-295L183,-216Z" fill="#f9e9ff" stroke="#f9e9ff" stroke-width="1.51"/><path d="M833,-290L6,-295L204,-267Z" fill="#f6e0ff" stroke="#f6e0ff" stroke-width="1.51"/><path d="M1521,-291L6,-295L833,-290Z" fill="#f0cbff" stroke="#f0cbff" stroke-width="1.51"/><path d="M-129,73L-230,231L-80,101Z" fill="#f4dbff" stroke="#f4dbff" stroke-width="1.51"/><path d="M-250,-81L-230,231L-129,73Z" fill="#f6e2ff" stroke="#f6e2ff" stroke-width="1.51"/><path d="M-230,231L-254,378L-48,241Z" fill="#f2d2ff" stroke="#f2d2ff" stroke-width="1.51"/><path d="M2271,-176L2130,-293L2154,-68Z" fill="#f598ff" stroke="#f598ff" stroke-width="1.51"/><path d="M1973,-178L2130,-293L1833,-226Z" fill="#f5a2ff" stroke="#f5a2ff" stroke-width="1.51"/><path d="M1833,-226L2130,-293L1521,-291Z" fill="#f5a9ff" stroke="#f5a9ff" stroke-width="1.51"/><path d="M1521,-291L2130,-293L6,-295Z" fill="#f0bcff" stroke="#f0bcff" stroke-width="1.51"/><path d="M-225,666L-219,841L-74,867Z" fill="#efb5ff" stroke="#efb5ff" stroke-width="1.51"/><path d="M-241,1193L-219,841L-225,666Z" fill="#f2b4ff" stroke="#f2b4ff" stroke-width="1.51"/><path d="M-70,1068L-62,1208L152,1117Z" fill="#f19fff" stroke="#f19fff" stroke-width="1.51"/><path d="M86,1259L-55,1253L255,1347Z" fill="#f193ff" stroke="#f193ff" stroke-width="1.51"/><path d="M-179,1054L-62,1208L-70,1068Z" fill="#f3a5ff" stroke="#f3a5ff" stroke-width="1.51"/><path d="M2328,250L2329,46L2109,93Z" fill="#ec80ff" stroke="#ec80ff" stroke-width="1.51"/><path d="M2249,-14L2271,-176L2154,-68Z" fill="#f291ff" stroke="#f291ff" stroke-width="1.51"/><path d="M-62,1208L-55,1253L86,1259Z" fill="#f29aff" stroke="#f29aff" stroke-width="1.51"/><path d="M-158,1276L-55,1253L-62,1208Z" fill="#f39eff" stroke="#f39eff" stroke-width="1.51"/><path d="M2222,1189L2278,1061L2117,1045Z" fill="#e234ff" stroke="#e234ff" stroke-width="1.51"/><path d="M2246,760L2278,1061L2263,602Z" fill="#e14dff" stroke="#e14dff" stroke-width="1.51"/><path d="M-219,841L-179,1054L-74,867Z" fill="#f1afff" stroke="#f1afff" stroke-width="1.51"/><path d="M2115,1183L2222,1189L2117,1045Z" fill="#e333ff" stroke="#e333ff" stroke-width="1.51"/><path d="M1898,1310L2131,1316L2115,1183Z" fill="#e32dff" stroke="#e32dff" stroke-width="1.51"/><path d="M1461,1355L2131,1316L1898,1310Z" fill="#e237ff" stroke="#e237ff" stroke-width="1.51"/><path d="M2131,1316L2222,1189L2115,1183Z" fill="#e328ff" stroke="#e328ff" stroke-width="1.51"/><path d="M2329,46L2271,-176L2249,-14Z" fill="#f18eff" stroke="#f18eff" stroke-width="1.51"/><path d="M6,-295L-196,-169L17,-139Z" fill="#faeeff" stroke="#faeeff" stroke-width="1.51"/><path d="M-230,231L-250,-81L-254,378Z" fill="#f5ddff" stroke="#f5ddff" stroke-width="1.51"/><path d="M-196,-169L-250,-81L-129,73Z" fill="#f9eaff" stroke="#f9eaff" stroke-width="1.51"/><path d="M-241,1193L-158,1276L-62,1208Z" fill="#f5a2ff" stroke="#f5a2ff" stroke-width="1.51"/><path d="M-55,1253L-158,1276L255,1347Z" fill="#f297ff" stroke="#f297ff" stroke-width="1.51"/><path d="M-241,1193L-62,1208L-179,1054Z" fill="#f4a6ff" stroke="#f4a6ff" stroke-width="1.51"/><path d="M-254,378L-241,1193L-225,666Z" fill="#efbbff" stroke="#efbbff" stroke-width="1.51"/><path d="M-219,841L-241,1193L-179,1054Z" fill="#f3aeff" stroke="#f3aeff" stroke-width="1.51"/><path d="M2131,1316L2323,1307L2222,1189Z" fill="#e41fff" stroke="#e41fff" stroke-width="1.51"/><path d="M2222,1189L2323,1307L2278,1061Z" fill="#e32bff" stroke="#e32bff" stroke-width="1.51"/><path d="M2278,1061L2323,1307L2295,419Z" fill="#e144ff" stroke="#e144ff" stroke-width="1.51"/><path d="M2328,250L2323,1307L2329,46Z" fill="#de5eff" stroke="#de5eff" stroke-width="1.51"/><path d="M1461,1355L2323,1307L2131,1316Z" fill="#e32cff" stroke="#e32cff" stroke-width="1.51"/></svg>